<?xml version="1.0" standalone="no"?>
<!DOCTYPE svg PUBLIC "-//W3C//DTD SVG 20010904//EN"
 "http://www.w3.org/TR/2001/REC-SVG-20010904/DTD/svg10.dtd">
<svg version="1.0" xmlns="http://www.w3.org/2000/svg"
 width="492.000000pt" height="354.000000pt" viewBox="0 0 492.000000 354.000000"
 preserveAspectRatio="xMidYMid meet">

<g transform="translate(0.000000,354.000000) scale(0.100000,-0.100000)"
fill="#000000" stroke="none">
<path d="M3268 3511 c-77 -30 -270 -172 -347 -255 -14 -14 -33 -26 -43 -26
-10 0 -27 -15 -38 -32 -11 -18 -69 -87 -129 -153 -250 -275 -478 -594 -656
-920 -39 -70 -74 -129 -80 -130 -5 -1 -82 -10 -170 -19 -88 -10 -202 -26 -254
-36 l-94 -19 -133 34 c-315 81 -483 166 -514 261 -27 80 55 222 185 321 181
138 510 263 808 307 94 14 115 15 168 2 91 -21 112 -55 54 -86 -52 -28 -36
-90 19 -76 43 11 96 71 96 109 0 85 -123 137 -321 137 -275 0 -592 -125 -864
-340 -202 -160 -274 -328 -196 -452 37 -59 127 -120 247 -169 79 -32 122 -46
258 -86 11 -3 -35 -23 -123 -53 -149 -50 -171 -62 -171 -91 0 -41 32 -40 156
5 66 25 161 56 212 71 l94 27 136 -26 c76 -14 171 -31 212 -37 41 -7 78 -15
82 -18 3 -3 -15 -58 -41 -121 -26 -63 -63 -160 -81 -215 -18 -55 -37 -105 -44
-111 -12 -12 -243 -58 -496 -99 -335 -54 -676 -89 -977 -101 -181 -7 -201 -13
-188 -52 3 -11 13 -22 23 -24 27 -6 312 9 487 27 339 34 1002 124 1106 150
l27 7 -14 -59 c-17 -71 -47 -285 -70 -493 -23 -207 -25 -573 -4 -614 24 -46
47 -56 70 -28 26 32 38 77 56 212 21 162 48 287 105 497 45 168 160 527 172
539 2 3 63 20 133 39 216 56 288 87 380 161 52 42 67 79 49 121 -21 49 -139
109 -294 149 -39 10 -71 21 -71 25 0 4 16 41 35 83 l34 76 251 0 c137 0 250
-3 250 -6 0 -3 -34 -92 -76 -197 -234 -591 -397 -1083 -489 -1480 -20 -87 -35
-173 -33 -190 3 -28 7 -32 33 -32 29 0 31 3 43 60 110 497 260 965 536 1660
l72 180 304 7 c695 15 1013 57 1055 138 20 39 19 62 -5 88 -58 62 -143 82
-617 142 -291 37 -501 72 -529 88 -8 5 28 99 122 316 73 170 139 313 146 317
48 30 385 105 643 143 156 23 160 23 223 6 120 -33 142 -68 109 -170 -20 -62
-18 -88 11 -98 36 -12 87 111 76 184 -11 75 -65 137 -143 163 -76 25 -281 8
-537 -44 -107 -23 -279 -68 -335 -90 -13 -5 -9 13 18 87 27 71 37 114 41 180
5 86 5 87 -26 117 -36 36 -65 39 -134 12z m100 -115 c4 -44 -22 -128 -73 -241
l-34 -74 -115 -54 c-211 -101 -340 -209 -399 -336 -35 -74 -46 -156 -27 -201
18 -43 91 -104 156 -131 30 -13 54 -25 54 -28 0 -3 -28 -73 -63 -156 l-63
-150 -114 -6 c-153 -8 -390 -10 -390 -3 0 26 387 764 510 974 37 62 150 180
322 337 75 68 158 114 203 110 27 -2 30 -6 33 -41z m-176 -463 c-11 -21 -64
-141 -117 -268 -54 -126 -102 -234 -107 -240 -13 -14 -112 40 -148 82 -37 41
-37 62 -4 133 57 123 154 216 309 297 44 23 81 40 83 38 2 -2 -5 -20 -16 -42z
m-676 -310 c-35 -66 -119 -230 -186 -364 -121 -242 -122 -244 -158 -252 -20
-4 -54 -7 -75 -5 l-38 3 81 135 c45 74 118 188 164 253 87 124 269 358 274
352 2 -2 -26 -57 -62 -122z m579 -328 c39 -8 162 -23 275 -35 424 -43 672 -88
749 -137 20 -13 21 -17 9 -29 -22 -23 -490 -55 -1007 -70 -228 -7 -234 -7
-227 12 41 112 113 274 121 274 6 0 42 -7 80 -15z m-952 -432 c-14 -32 -29
-62 -34 -67 -6 -7 -124 10 -137 20 -2 1 8 25 22 53 l26 51 75 0 74 0 -26 -57z
m-220 10 c-8 -21 -16 -39 -17 -41 -4 -3 -207 38 -226 45 -14 6 144 29 222 32
l37 1 -16 -37z m99 -135 c29 -6 54 -12 56 -13 1 -1 -26 -76 -61 -166 -35 -90
-67 -171 -70 -181 -4 -10 -30 -22 -78 -32 -39 -9 -73 -15 -76 -13 -8 8 117
367 143 408 7 12 22 11 86 -3z m350 -78 c94 -26 119 -53 92 -99 -28 -48 -102
-88 -224 -121 -63 -17 -128 -36 -144 -41 -71 -22 -71 -22 9 173 l56 136 84
-18 c46 -11 103 -24 127 -30z m-472 -405 c0 -3 -25 -86 -56 -183 -31 -97 -83
-283 -115 -412 -33 -129 -62 -239 -64 -245 -9 -19 6 249 21 385 15 132 57 368
73 413 6 17 21 25 62 33 66 14 79 16 79 9z"/>
<path d="M2971 1633 c-13 -37 -32 -83 -42 -100 l-18 -33 24 0 c18 0 23 4 19
15 -4 8 -3 26 0 40 5 20 13 25 36 25 33 0 55 -29 47 -61 -4 -16 1 -19 35 -19
36 0 39 2 27 16 -7 9 -28 53 -45 98 -17 44 -38 82 -46 84 -9 2 -22 -19 -37
-65z m27 -41 c-27 -5 -30 1 -17 34 l11 29 12 -30 c11 -27 11 -30 -6 -33z"/>
<path d="M3145 1600 l0 -100 27 0 c25 0 26 2 21 35 -12 76 18 81 57 10 20 -37
30 -45 53 -45 l28 0 -36 52 c-29 43 -32 54 -20 61 22 12 19 64 -4 77 -11 5
-44 10 -73 10 l-53 0 0 -100z m99 68 c14 -23 -3 -52 -33 -56 -19 -3 -21 1 -21
38 0 37 2 41 21 38 12 -2 27 -11 33 -20z"/>
<path d="M3330 1678 c1 -21 2 -21 11 -5 5 9 21 17 35 17 l25 0 -3 -95 -3 -95
35 0 c26 0 31 3 22 12 -7 7 -12 44 -12 95 l0 83 29 0 c16 0 32 -6 34 -12 3 -8
6 -6 6 5 1 15 -10 17 -89 17 -87 0 -90 -1 -90 -22z"/>
<path d="M3638 1614 c2 -56 -1 -90 -8 -100 -11 -12 -6 -14 31 -14 33 0 40 3
31 12 -7 7 -12 29 -12 50 0 33 3 38 23 38 13 0 28 -5 35 -12 9 -9 12 -5 11 18
0 16 -3 23 -6 17 -2 -7 -18 -13 -34 -13 -27 0 -29 2 -29 40 0 37 2 40 28 40
15 0 34 -6 41 -12 10 -11 11 -10 6 5 -6 13 -19 17 -64 17 l-56 0 3 -86z"/>
<path d="M3805 1618 c-15 -46 -35 -91 -43 -100 -14 -17 -13 -18 12 -18 16 0
25 4 21 10 -4 6 -4 24 0 40 5 25 12 30 35 30 33 0 55 -29 47 -61 -4 -16 1 -19
35 -19 33 0 38 2 29 14 -7 8 -27 52 -45 97 -19 46 -40 85 -48 87 -10 2 -23
-24 -43 -80z m33 -26 c-27 -5 -30 1 -17 34 l11 29 12 -30 c11 -27 11 -30 -6
-33z"/>
<path d="M3984 1675 c-21 -33 -11 -60 37 -92 40 -27 51 -56 23 -67 -25 -9 -33
-7 -54 14 -19 19 -20 19 -20 1 0 -14 10 -21 36 -25 45 -9 84 14 84 49 0 24
-10 36 -69 83 -16 12 -22 25 -18 35 8 22 35 22 59 0 17 -15 18 -15 18 5 0 19
-6 22 -40 22 -31 0 -43 -5 -56 -25z"/>
<path d="M4125 1600 l0 -100 35 0 c26 0 31 3 22 12 -7 7 -12 29 -12 50 l0 38
51 0 52 0 -5 -50 c-5 -48 -4 -50 21 -50 l26 0 0 100 0 100 -25 0 c-24 0 -25
-3 -22 -45 l4 -45 -52 0 -52 0 4 45 c3 42 2 45 -22 45 l-25 0 0 -100z"/>
<path d="M4368 1614 c2 -56 -1 -90 -8 -100 -11 -12 -7 -14 21 -14 l34 0 0 100
c0 100 0 100 -25 100 -25 0 -25 0 -22 -86z"/>
<path d="M4485 1677 c-17 -14 -28 -36 -32 -63 -5 -36 -1 -46 25 -75 26 -29 37
-34 75 -34 76 0 120 60 97 131 -21 62 -114 86 -165 41z m111 -12 c19 -29 15
-114 -6 -140 -18 -22 -56 -18 -74 7 -22 30 -21 116 1 140 23 26 59 23 79 -7z"/>
<path d="M4693 1686 c14 -11 17 -29 17 -94 0 -55 -4 -82 -12 -85 -7 -3 3 -6
22 -6 26 -1 31 2 22 11 -7 7 -12 40 -12 76 l0 64 74 -79 74 -78 4 103 c2 85 1
102 -12 102 -12 0 -14 -12 -12 -62 l3 -63 -58 63 c-50 54 -63 62 -93 62 -31
-1 -33 -2 -17 -14z"/>
<path d="M3294 1360 c-47 -19 -69 -92 -44 -141 21 -39 89 -58 148 -43 16 5 22
14 22 33 0 15 5 32 12 39 9 9 2 12 -32 12 -29 0 -40 -3 -32 -9 8 -5 12 -21 10
-37 -4 -37 -45 -45 -73 -14 -26 28 -26 111 0 140 23 26 65 26 93 0 l22 -21 0
23 c0 21 -5 23 -53 25 -28 1 -62 -2 -73 -7z"/>
<path d="M3533 1353 c-3 -10 -20 -55 -38 -100 -29 -76 -31 -83 -14 -83 11 0
16 5 13 13 -3 8 0 26 5 40 8 21 17 27 40 27 24 0 31 -6 40 -31 6 -17 8 -35 5
-40 -3 -5 11 -9 31 -9 34 0 35 1 21 23 -7 12 -27 57 -42 100 -28 75 -48 95
-61 60z m27 -85 c0 -5 -11 -8 -24 -8 -24 0 -24 2 -14 31 l11 32 13 -24 c7 -13
13 -27 14 -31z"/>
<path d="M3685 1270 l0 -100 68 0 c61 0 67 2 67 21 0 19 -1 19 -16 4 -9 -9
-26 -15 -38 -13 -20 3 -21 9 -21 96 l0 92 -30 0 -30 0 0 -100z"/>
<path d="M3848 1361 c10 -6 13 -32 10 -100 l-3 -92 65 3 c59 3 65 5 68 26 l4
24 -22 -22 c-12 -12 -31 -20 -43 -18 -20 3 -22 9 -25 87 -2 61 1 87 10 92 8 5
-5 9 -32 9 -28 0 -40 -3 -32 -9z"/>
<path d="M4018 1358 c16 -16 16 -160 0 -176 -9 -9 4 -12 60 -12 67 0 72 1 72
22 0 20 -1 21 -13 4 -8 -11 -23 -17 -38 -14 -21 3 -24 9 -27 46 l-3 44 30 -7
c23 -5 31 -3 31 7 0 10 -9 13 -30 10 -29 -4 -30 -3 -30 38 l0 42 35 -4 c19 -2
35 0 35 4 0 4 -30 8 -67 8 -52 0 -64 -3 -55 -12z"/>
<path d="M4178 1358 c16 -16 16 -160 0 -176 -9 -9 -4 -12 23 -12 l34 0 -4 51
c-3 49 -2 50 18 40 11 -7 30 -30 41 -51 17 -33 26 -40 50 -40 l30 0 -36 50
c-33 45 -34 51 -20 66 22 22 20 50 -6 68 -28 20 -149 23 -130 4z m96 -14 c28
-27 12 -64 -26 -64 -14 0 -18 8 -18 40 0 44 16 52 44 24z"/>
<path d="M4410 1317 c42 -56 53 -110 28 -135 -9 -9 -4 -12 23 -12 l34 0 -3 59
c-4 56 -2 60 36 100 l39 41 -28 0 c-19 0 -27 -4 -24 -12 3 -7 -3 -26 -14 -41
l-18 -29 -22 30 c-11 17 -21 35 -21 41 0 6 -16 11 -35 11 l-36 0 41 -53z"/>
</g>
</svg>
